<?xml version="1.0" encoding="UTF-8" standalone="no"?>
<!-- Created with Inkscape (http://www.inkscape.org/) -->

<svg
   width="108.03141mm"
   height="129.63724mm"
   viewBox="0 0 108.03141 129.63724"
   version="1.1"
   id="svg1"
   xml:space="preserve"
   xmlns="http://www.w3.org/2000/svg"
   xmlns:svg="http://www.w3.org/2000/svg"><defs
     id="defs1" /><path
     style="display:inline;fill:#ededed;fill-opacity:1"
     d="m 85.248388,128.32565 c -0.35994,-3.84108 0.5199,-9.15269 2.20385,-13.3047 3.25579,-8.02756 9.26713,-10.53687 14.167632,-5.91398 3.13652,2.95883 5.4017,8.4566 6.09339,14.78909 0.17054,1.56131 0.13979,5.4696 -0.0445,5.65387 -0.0384,0.0384 -0.63886,-0.004 -1.33441,-0.0945 -2.17138,-0.28207 -1.94077,0.071 -1.9504,-2.98602 -0.0116,-3.67742 -0.5679,-6.55851 -1.91696,-9.92762 -1.53341,-3.82952 -3.944272,-6.38126 -6.024202,-6.37624 -3.03047,0.007 -6.07245,4.68066 -7.40215,11.37182 -0.30127,1.51604 -0.38295,2.51651 -0.38883,4.76277 -0.007,2.70386 -0.0241,2.84707 -0.3461,2.9148 -0.34533,0.0726 -2.70873,0.42229 -2.85432,0.42229 -0.0441,0 -0.13543,-0.5902 -0.20302,-1.31156 z m -35.04266,1.04222 c -0.18627,-0.0296 -1.36737,-0.17702 -2.62467,-0.32753 C 33.956922,127.40947 22.702033,122.24859 14.782922,114.0009 5.0399018,103.85363 0.01122184,88.654083 3.0842275e-5,69.318563 -0.00136916,66.846933 0.04387084,66.367043 0.35751384,65.528743 c 0.423303,-1.13138 1.22483096,-2.07365 2.32125996,-2.72887 l 0.790952,-0.47266 21.5539092,-0.0847 21.553913,-0.0847 -18.59058,-13.79773 C 17.762151,40.771383 7.4713158,33.130583 5.1184438,31.380593 L 0.84049584,28.198774 2.3655328,26.179215 3.8905698,24.159655 27.602309,41.761763 c 13.04146,9.68116 23.748119,17.60211 23.792579,17.60211 0.0445,0 0.0808,-12.65173 0.0808,-28.11496 V 3.1339525 l 0.42138,-0.83156 c 0.4577,-0.90322 1.41121,-1.66970004 2.53164,-2.03507004 1.5664,-0.5107902 8.9669,0.43578 14.74231,1.88565004 14.88143,3.73584 25.69214,12.1033195 32.062022,24.8159405 4.44842,8.87791 6.79086,20.34403 6.79834,33.27761 0.001,2.47163 -0.0438,2.95152 -0.35748,3.78982 -0.4233,1.13138 -1.22483,2.07365 -2.32126,2.72887 l -0.79095,0.47266 -21.554022,0.0847 -21.55401,0.0847 18.59068,13.79731 c 10.22487,7.58852 20.515762,15.22932 22.868632,16.97955 l 4.27795,3.182237 -1.52504,2.01956 -1.52504,2.01956 -23.711742,-17.602107 c -13.04145,-9.68116 -23.74811,-17.60211 -23.79257,-17.60211 -0.0445,0 -0.0808,12.65173 -0.0808,28.11496 v 28.114957 l -0.42138,0.83156 c -0.44157,0.87138 -1.38755,1.65019 -2.44022,2.00899 -0.51739,0.17635 -2.62015,0.23433 -3.4884,0.0962 z m 1.27,-33.512657 V 67.322543 H 28.25058 5.0254358 l 0.108543,4.27567 c 0.121886,4.80127 0.423859,8.28643 1.052379,12.1458 3.44081,21.127977 14.9305982,34.125947 34.3485012,38.857187 3.199889,0.77966 8.619849,1.68841 10.559869,1.77054 l 0.381,0.0161 z M 102.89747,57.966873 C 102.55883,44.627093 99.985408,34.352243 94.871198,25.920545 88.599818,15.581012 78.052658,8.8269425 64.091058,6.2098925 c -1.56694,-0.29372 -6.84251,-1.03268 -7.37247,-1.03268 -0.10361,0 -0.16286,10.3801995 -0.16286,28.5326705 v 28.53266 h 23.22514 23.225152 z M 76.029058,129.29106 c -5.94775,-0.72399 -11.34856,-2.98574 -14.10369,-5.90633 -3.07424,-3.25885 -3.06359,-7.09471 0.0288,-10.38228 2.95083,-3.13706 8.57506,-5.43488 14.87684,-6.07804 1.61369,-0.1647 5.36696,-0.13074 5.54788,0.0502 0.0617,0.0617 -0.17648,2.11076 -0.34115,2.93528 -0.0641,0.32108 -0.20653,0.33911 -2.74183,0.34709 -4.5637,0.0144 -9.00167,1.1373 -12.46596,3.15421 -1.17726,0.68541 -3.33155,2.62683 -3.33155,3.00236 0,0.13041 1.82392,0.18501 6.18066,0.18501 h 6.18067 v 1.524 1.524 h -6.26968 -6.26968 l 0.25271,0.48869 c 0.75862,1.46701 3.87915,3.44824 7.08537,4.49853 3.05088,0.99939 5.2218,1.34685 8.46819,1.35534 2.70387,0.007 2.84708,0.0241 2.91481,0.34611 0.19579,0.93093 0.42194,2.85078 0.34488,2.92784 -0.16237,0.16237 -5.07564,0.18402 -6.35727,0.028 z M 10.107335,22.602369 C 8.1807968,22.14899 5.9332648,20.393289 4.4789038,18.205617 1.7038168,14.031292 -0.02923716,7.4517025 0.20932884,1.9960725 c 0.04596,-1.05113004 0.115117,-1.94269004 0.153673,-1.98125004 0.06335,-0.0633 2.10193696,0.17203 2.93738996,0.33916 0.321513,0.0643 0.339193,0.20747 0.349058,2.82649004 0.01378,3.6594 0.554781,6.43526 1.924069,9.8723995 1.50933,3.78867 3.938454,6.35169 6.0151212,6.346686 3.030472,-0.0073 6.072454,-4.680656 7.402151,-11.3718255 0.301274,-1.51604 0.382952,-2.51651 0.388828,-4.76276 0.0071,-2.70387004 0.02408,-2.84708004 0.346106,-2.91481004 1.012283,-0.2129 2.854289,-0.41842 2.944102,-0.32848 0.237034,0.23738 0.07619,6.27475004 -0.209524,7.86486004 -1.433156,7.9759495 -4.916225,13.5413265 -9.162488,14.6401665 -1.102303,0.285251 -2.190237,0.311051 -3.19048,0.07566 z m 15.995347,0.06187 c -0.481828,-0.05915 -0.552737,-0.124176 -0.478218,-0.438567 0.04812,-0.203019 0.137482,-0.826325 0.198581,-1.385125 0.0611,-0.5588 0.142134,-1.1303 0.18008,-1.27 0.05749,-0.21165 0.513964,-0.255404 2.737796,-0.262422 4.558025,-0.01439 8.998029,-1.138305 12.460578,-3.154203 1.177269,-0.68541 3.331559,-2.62683 3.331559,-3.00236 0,-0.13042 -1.82392,-0.18501 -6.180667,-0.18501 h -6.180666 v -1.524 -1.5239995 h 6.269681 6.269682 l -0.25271,-0.4887 c -0.75862,-1.46701 -3.879149,-3.44824 -7.085378,-4.49852 -3.050873,-0.9994 -5.221795,-1.34685 -8.468186,-1.35535 -2.703867,-0.007 -2.847077,-0.0241 -2.914806,-0.3461 -0.212835,-1.01196 -0.418435,-2.85429004 -0.328555,-2.94411004 0.240482,-0.24031 6.275478,-0.0817 7.864938,0.20669 3.704969,0.67227004 7.021988,1.81515004 9.547487,3.28961004 1.75396,1.02401 3.93869,3.15418 4.56789,4.45384 2.1278,4.3950395 -0.34168,8.8407285 -6.525859,11.7481975 -2.93244,1.378674 -6.188756,2.266884 -9.645669,2.631002 -1.548611,0.163116 -4.238392,0.187733 -5.367558,0.04913 z"
     id="path1" /></svg>
