<?xml version="1.0" encoding="UTF-8" standalone="no"?>
<!-- Created with Inkscape (http://www.inkscape.org/) -->

<svg
   width="196.81488mm"
   height="121.03083mm"
   viewBox="0 0 196.81488 121.03083"
   version="1.1"
   id="svg1"
   xmlns:xlink="http://www.w3.org/1999/xlink"
   xmlns="http://www.w3.org/2000/svg"
   xmlns:svg="http://www.w3.org/2000/svg">
  <defs
     id="defs1">
    <pattern
       xlink:href="#shading24"
       preserveAspectRatio="xMidYMid"
       id="pattern184"
       patternTransform="matrix(0.55,0,0,0.55,213.95332,1537.5392)"
       x="0"
       y="0" />
    <pattern
       xlink:href="#shading24"
       preserveAspectRatio="xMidYMid"
       id="pattern183"
       patternTransform="matrix(0.55,0,0,0.55,213.95332,1537.5392)"
       x="0"
       y="0" />
    <pattern
       patternUnits="userSpaceOnUse"
       width="338.5925"
       height="42.989567"
       patternTransform="translate(213.95332,1537.5392) scale(0.5)"
       preserveAspectRatio="xMidYMid"
       id="shading24"
       style="fill:#292828">
      <path
         style="fill-rule:nonzero;stroke:none;stroke-width:0.1;stroke-linecap:square;paint-order:markers fill stroke;stop-color:#000000"
         d="m 1806.4991,-758.06464 v 18.86792 c 55.9187,0 121.0493,0.59523 193.5686,3.15628 72.9408,2.57593 146.0589,6.87694 222.9288,13.47675 119.09,10.22471 223.0762,23.76065 340.6056,39.2177 117.5025,15.4535 222.0471,29.0563 341.8507,39.3312 77.366,6.63525 151.0001,10.96128 224.4674,13.55245 73.0344,2.5759 138.631,3.17493 194.9247,3.17493 -55.9642,0 -122.2215,-1.36594 -194.8324,-5.25394 -73.2143,-3.92032 -146.9676,-10.0663 -223.8166,-18.88656 -118.8791,-13.6442 -223.3242,-31.02113 -339.8009,-50.57815 -116.4705,-19.55598 -221.1862,-36.99475 -340.3724,-50.69165 -77.0605,-8.8558 -150.9942,-15.0266 -224.3694,-18.96225 -72.7637,-3.90286 -139.1256,-5.27261 -195.1541,-5.27261 z m 0,37.81515 v 18.86793 c 55.9187,0 121.0493,0.59523 193.5686,3.15627 72.9408,2.57593 146.0589,6.87694 222.9288,13.47676 119.09,10.22471 223.0762,23.76065 340.6056,39.2177 117.5025,15.4535 222.0471,29.0563 341.8507,39.33119 77.366,6.63526 151.0001,10.96128 224.4674,13.55245 73.0344,2.5759 138.631,3.17493 194.9247,3.17493 -55.9642,0 -122.2215,-1.36594 -194.8324,-5.25394 -73.2143,-3.92031 -146.9676,-10.0663 -223.8166,-18.88656 -118.8791,-13.6442 -223.3242,-31.02112 -339.8009,-50.57815 -116.4705,-19.55598 -221.1862,-36.99475 -340.3724,-50.69165 -77.0605,-8.8558 -150.9942,-15.02659 -224.3694,-18.96225 -72.7637,-3.90286 -139.1256,-5.2726 -195.1541,-5.2726 z m 0,37.81516 v 18.86792 c 55.9187,0 121.0493,0.59523 193.5686,3.15628 72.9408,2.57593 146.0589,6.87694 222.9288,13.47675 119.09,10.22471 223.0762,23.76065 340.6056,39.2177 117.5025,15.4535 222.0471,29.0563 341.8507,39.3312 77.366,6.63525 151.0001,10.96128 224.4674,13.55245 73.0344,2.5759 138.631,3.17493 194.9247,3.17493 -55.9642,0 -122.2215,-1.36594 -194.8324,-5.25394 -73.2143,-3.92032 -146.9676,-10.0663 -223.8166,-18.88656 -118.8791,-13.6442 -223.3242,-31.02113 -339.8009,-50.57815 -116.4705,-19.55598 -221.1862,-36.99475 -340.3724,-50.69165 -77.0605,-8.8558 -150.9942,-15.0266 -224.3694,-18.96225 -72.7637,-3.90286 -139.1256,-5.27261 -195.1541,-5.27261 z m 0,37.81515 v 18.86793 c 55.9187,0 121.0493,0.59523 193.5686,3.15627 72.9408,2.57593 146.0589,6.87694 222.9288,13.47676 119.09,10.22471 223.0762,23.76065 340.6056,39.2177 117.5025,15.4535 222.0471,29.0563 341.8507,39.33119 77.366,6.63526 151.0001,10.96128 224.4674,13.55245 73.0344,2.5759 138.631,3.17494 194.9247,3.17494 -55.9642,0 -122.2215,-1.36595 -194.8324,-5.25395 -73.2143,-3.92031 -146.9676,-10.0663 -223.8166,-18.88656 -118.8791,-13.6442 -223.3242,-31.02112 -339.8009,-50.57815 -116.4705,-19.55598 -221.1862,-36.99475 -340.3724,-50.69165 -77.0605,-8.8558 -150.9942,-15.02659 -224.3694,-18.96225 -72.7637,-3.90286 -139.1256,-5.2726 -195.1541,-5.2726 z m 0,37.81516 v 18.86792 c 55.9187,0 121.0493,0.59523 193.5686,3.15628 72.9408,2.57593 146.0589,6.87694 222.9288,13.47675 119.09,10.22471 223.0762,23.76065 340.6056,39.2177 117.5025,15.4535 222.0471,29.0563 341.8507,39.3312 77.366,6.63525 151.0001,10.96128 224.4674,13.55245 73.0344,2.5759 138.631,3.17493 194.9247,3.17493 -55.9642,0 -122.2215,-1.36594 -194.8324,-5.25394 -73.2143,-3.92032 -146.9676,-10.0663 -223.8166,-18.88656 -118.8791,-13.6442 -223.3242,-31.02113 -339.8009,-50.57815 -116.4705,-19.55598 -221.1862,-36.99475 -340.3724,-50.69165 -77.0605,-8.8558 -150.9942,-15.0266 -224.3694,-18.96225 -72.7637,-3.90286 -139.1256,-5.27261 -195.1541,-5.27261 z m 0,37.81515 v 18.86793 c 55.9187,0 121.0493,0.59523 193.5686,3.15627 72.9408,2.57593 146.0589,6.87694 222.9288,13.47676 119.09,10.22471 223.0762,23.76065 340.6056,39.2177 117.5025,15.4535 222.0471,29.0563 341.8507,39.33119 77.366,6.63526 151.0001,10.96128 224.4674,13.55245 73.0344,2.5759 138.631,3.17494 194.9247,3.17494 -55.9642,0 -122.2215,-1.36595 -194.8324,-5.25395 -73.2143,-3.92031 -146.9676,-10.0663 -223.8166,-18.88656 -118.8791,-13.6442 -223.3242,-31.02112 -339.8009,-50.57815 -116.4705,-19.55598 -221.1862,-36.99475 -340.3724,-50.69165 -77.0605,-8.8558 -150.9942,-15.02659 -224.3694,-18.96225 -72.7637,-3.90286 -139.1256,-5.2726 -195.1541,-5.2726 z m 0,37.81516 v 18.86792 c 55.9187,0 121.0493,0.59523 193.5686,3.15628 72.9408,2.57593 146.0589,6.87694 222.9288,13.47675 119.09,10.22471 223.0762,23.76065 340.6056,39.2177 117.5025,15.4535 222.0471,29.0563 341.8507,39.3312 77.366,6.63525 151.0001,10.96128 224.4674,13.55245 73.0344,2.5759 138.631,3.17493 194.9247,3.17493 -55.9642,0 -122.2215,-1.36594 -194.8324,-5.25394 -73.2143,-3.92032 -146.9676,-10.0663 -223.8166,-18.88656 -118.8791,-13.6442 -223.3242,-31.02113 -339.8009,-50.57815 -116.4705,-19.55598 -221.1862,-36.99475 -340.3724,-50.69165 -77.0605,-8.8558 -150.9942,-15.0266 -224.3694,-18.96225 -72.7637,-3.90286 -139.1256,-5.27261 -195.1541,-5.27261 z"
         id="use26"
         transform="matrix(0.22300099,0,0,0.37823052,-402.85121,237.25945)" />
    </pattern>
  </defs>
  <g
     id="layer1"
     style="display:inline"
     transform="translate(-7.9999997,-60.000001)">
    <g
       id="g8"
       style="display:inline;fill:#000000;fill-opacity:0"
       transform="translate(-0.21405945,-1.0226707)">
      <rect
         style="display:inline;fill:#ededed;fill-opacity:1;stroke:#292828;stroke-width:4.35546;stroke-linejoin:round;stroke-dasharray:none;stroke-opacity:1"
         id="rect7-3"
         width="75.978355"
         height="123.75906"
         x="72.983292"
         y="66.771935"
         transform="matrix(1,0,-0.32791236,0.94470815,0,0)" />
      <path
         id="rect8"
         style="display:inline;fill:url(#pattern184);fill-opacity:1;stroke:#292828;stroke-width:4.35709;stroke-linejoin:round;stroke-dasharray:none;stroke-opacity:1"
         transform="matrix(1,0,-0.32994767,0.94399923,0,0)"
         d="m 97.5283,84.533974 h 27.89831 c 3.93531,0 7.10344,3.168135 7.10344,7.103442 v 14.041694 c 0,3.9353 -3.16813,7.10344 -7.10344,7.10344 H 97.5283 c -3.935307,0 -7.103442,-3.16814 -7.103442,-7.10344 V 91.637416 c 0,-3.935307 3.168135,-7.103442 7.103442,-7.103442 z" />
      <g
         id="g10"
         style="display:inline">
        <path
           style="fill:#292828;fill-opacity:1;stroke:#292828;stroke-width:2.64583;stroke-linejoin:round;stroke-dasharray:none;stroke-opacity:1"
           d="m 43.205479,179.38749 18.648266,-39.15833 -9.672032,39.6875 z"
           id="path9" />
        <path
           style="fill:#292828;fill-opacity:1;stroke:#292828;stroke-width:2.64583;stroke-linejoin:round;stroke-dasharray:none;stroke-opacity:1"
           d="m 72.760416,130.39223 32.279164,-3.87401 -2.64583,7.22273 z"
           id="path10" />
      </g>
    </g>
  </g>
  <g
     id="g165"
     style="display:inline"
     transform="translate(-7.9999997,-60.000001)">
    <g
       id="g164"
       style="display:inline;fill:#000000;fill-opacity:0"
       transform="translate(75.456815,-1.0226707)">
      <rect
         style="display:inline;fill:#ededed;fill-opacity:1;stroke:#292828;stroke-width:4.35546;stroke-linejoin:round;stroke-dasharray:none;stroke-opacity:1"
         id="rect154"
         width="75.978355"
         height="123.75906"
         x="72.983292"
         y="66.771935"
         transform="matrix(1,0,-0.32791236,0.94470815,0,0)" />
      <path
         id="path154"
         style="display:inline;fill:url(#pattern183);fill-opacity:1;stroke:#292828;stroke-width:4.35709;stroke-linejoin:round;stroke-dasharray:none;stroke-opacity:1"
         transform="matrix(1,0,-0.32994767,0.94399923,0,0)"
         d="m 97.5283,84.533974 h 27.89831 c 3.93531,0 7.10344,3.168135 7.10344,7.103442 v 14.041694 c 0,3.9353 -3.16813,7.10344 -7.10344,7.10344 H 97.5283 c -3.935307,0 -7.103442,-3.16814 -7.103442,-7.10344 V 91.637416 c 0,-3.935307 3.168135,-7.103442 7.103442,-7.103442 z" />
      <g
         id="g160"
         style="display:inline">
        <path
           style="fill:#292828;fill-opacity:1;stroke:#292828;stroke-width:2.64583;stroke-linejoin:round;stroke-dasharray:none;stroke-opacity:1"
           d="m 43.205479,179.38749 18.648266,-39.15833 -9.672032,39.6875 z"
           id="path159" />
        <path
           style="fill:#292828;fill-opacity:1;stroke:#292828;stroke-width:2.646;stroke-linejoin:round;stroke-dasharray:none;stroke-opacity:1"
           d="m 72.760416,130.39223 32.279164,-3.87401 -2.64583,7.22273 z"
           id="path160" />
      </g>
    </g>
  </g>
</svg>
