<?xml version="1.0" encoding="UTF-8" standalone="no"?>
<!-- Created with Inkscape (http://www.inkscape.org/) -->

<svg
   width="196.81488mm"
   height="121.03086mm"
   viewBox="0 0 196.81488 121.03086"
   version="1.1"
   id="svg1"
   xmlns:xlink="http://www.w3.org/1999/xlink"
   xmlns="http://www.w3.org/2000/svg"
   xmlns:svg="http://www.w3.org/2000/svg">
  <defs
     id="defs1">
    <pattern
       xlink:href="#pattern23-1"
       preserveAspectRatio="xMidYMid"
       id="pattern218"
       patternTransform="matrix(2,0,0,2,348.90769,96.876921)"
       x="-1"
       y="-6" />
    <pattern
       xlink:href="#pattern23-1"
       preserveAspectRatio="xMidYMid"
       id="pattern217"
       patternTransform="matrix(2,0,0,2,348.90769,96.876921)"
       x="-1"
       y="-6" />
    <pattern
       patternUnits="userSpaceOnUse"
       width="21.18462"
       height="28.246158"
       patternTransform="translate(348.90769,96.876921)"
       preserveAspectRatio="xMidYMid"
       style="fill:#000000"
       id="pattern23-1">
      <path
         d="M 14.12308,0 C 11.77918,0 9.73077,1.163596 8.42351,2.904608 L 0,14.123079 h 14.12308 c 3.89997,0 7.06154,-3.161571 7.06154,-7.06154 C 21.18462,3.161564 18.02305,0 14.12308,0 Z M 7.06154,28.246159 c 2.3439,0 4.39231,-1.1636 5.69957,-2.90461 l 8.42351,-11.21847 H 7.06154 C 3.16157,14.123079 0,17.284649 0,21.184619 c 0,3.89997 3.16157,7.06154 7.06154,7.06154 z"
         style="fill-rule:nonzero;stroke-width:4.85611;stroke-linecap:square;paint-order:stroke markers fill;stop-color:#000000"
         id="path21-4" />
    </pattern>
  </defs>
  <g
     id="layer1"
     style="display:inline"
     transform="translate(-7.9999994,-60.000002)">
    <g
       id="g8"
       style="display:inline;fill:#000000;fill-opacity:0"
       transform="translate(-0.21405945,-1.0226707)">
      <rect
         style="display:inline;fill:#ededed;fill-opacity:1;stroke:#000000;stroke-width:4.35546;stroke-linejoin:round;stroke-dasharray:none;stroke-opacity:1"
         id="rect7-3"
         width="75.978355"
         height="123.75906"
         x="72.983292"
         y="66.771935"
         transform="matrix(1,0,-0.32791236,0.94470815,0,0)" />
      <path
         id="path190"
         style="display:inline;fill:#ffffff;fill-opacity:1;stroke:#000000;stroke-width:4.35709;stroke-linejoin:round;stroke-dasharray:none;stroke-opacity:1"
         transform="matrix(1,0,-0.32994767,0.94399923,0,0)"
         d="m 97.5283,84.533974 h 27.89831 c 3.93531,0 7.10344,3.168135 7.10344,7.103442 v 14.041694 c 0,3.9353 -3.16813,7.10344 -7.10344,7.10344 H 97.5283 c -3.935307,0 -7.103442,-3.16814 -7.103442,-7.10344 V 91.637416 c 0,-3.935307 3.168135,-7.103442 7.103442,-7.103442 z" />
      <path
         id="rect8"
         style="display:inline;fill:url(#pattern217);fill-opacity:1;stroke:#000000;stroke-width:4.35709;stroke-linejoin:round;stroke-dasharray:none;stroke-opacity:1"
         transform="matrix(1,0,-0.32994767,0.94399923,0,0)"
         d="m 97.5283,84.533974 h 27.89831 c 3.93531,0 7.10344,3.168135 7.10344,7.103442 v 14.041694 c 0,3.9353 -3.16813,7.10344 -7.10344,7.10344 H 97.5283 c -3.935307,0 -7.103442,-3.16814 -7.103442,-7.10344 V 91.637416 c 0,-3.935307 3.168135,-7.103442 7.103442,-7.103442 z" />
      <path
         id="rect150"
         style="display:none;fill:#ededed;fill-opacity:1;stroke:#000000;stroke-width:4.35546;stroke-linejoin:round;stroke-dasharray:none;stroke-opacity:1"
         d="m 72.983256,66.771801 1.7e-4,123.759259 h 75.978304 l -1.7e-4,-123.759259 z m 24.352293,17.698492 h 27.898041 c 3.93531,0 7.09659,3.166188 7.08761,7.098542 l -0.0324,14.030795 c -0.009,3.93235 -3.18395,7.09854 -7.11926,7.09854 h -27.8986 c -3.935307,0 -7.096077,-3.16619 -7.087099,-7.09854 l 0.03192,-14.030795 c 0.009,-3.932354 3.184479,-7.098542 7.119786,-7.098542 z"
         transform="matrix(1,0,-0.32791236,0.94470815,0,0)" />
      <g
         id="g143"
         transform="translate(0.21405945,1.0226707)"
         style="display:none;stroke-width:3.175;stroke-dasharray:none">
        <path
           style="fill:#000000;fill-opacity:0;stroke:#000000;stroke-width:12.8509;stroke-linecap:round;stroke-linejoin:round;stroke-dasharray:none;stroke-opacity:1"
           d="m 47.64222,145.06916 c -4.275652,-10.99948 -2.702685,-24.08594 4.057754,-33.7589 6.760438,-9.67296 18.509236,-15.647529 30.308154,-15.41248 11.786673,0.234805 23.277112,6.65866 29.650432,16.5764 6.37332,9.91774 7.44257,23.03845 2.75914,33.85724"
           id="path143"
           transform="matrix(0.18511285,-0.00586343,-0.09689036,0.33282022,70.249323,124.26364)" />
        <path
           style="display:inline;fill:#000000;fill-opacity:0;stroke:#000000;stroke-width:2.76687;stroke-linecap:round;stroke-linejoin:round;stroke-dasharray:none;stroke-opacity:1"
           d="m 25.626185,165.03106 c -2.372576,0.0431 4.745154,-0.0863 7.117731,-0.12934 2.372575,-0.0432 -7.117731,0.12934 -7.117731,0.12934 z"
           id="path148"
           transform="translate(-0.21405945,-1.0226707)" />
        <path
           style="fill:#000000;fill-opacity:0;stroke:#000000;stroke-width:12.8655;stroke-linecap:round;stroke-linejoin:round;stroke-dasharray:none;stroke-opacity:1"
           d="m 47.64222,145.06916 c -4.275652,-10.99948 -2.702685,-24.08594 4.057754,-33.7589 6.760438,-9.67296 18.509236,-15.647529 30.308154,-15.41248 11.786673,0.234805 23.277112,6.65866 29.650432,16.5764 6.37332,9.91774 7.44257,23.03845 2.75914,33.85724"
           id="path143-1"
           transform="matrix(0.0494057,-0.23528114,0.25884733,0,-4.2165201,183.09765)" />
      </g>
      <g
         id="g10"
         style="display:inline">
        <path
           style="fill:#000000;fill-opacity:1;stroke:#000000;stroke-width:2.64583;stroke-linejoin:round;stroke-dasharray:none;stroke-opacity:1"
           d="m 43.205479,179.38749 18.648266,-39.15833 -9.672032,39.6875 z"
           id="path9" />
        <path
           style="fill:#000000;fill-opacity:1;stroke:#000000;stroke-width:2.64583;stroke-linejoin:round;stroke-dasharray:none;stroke-opacity:1"
           d="m 73.759968,121.39257 32.279162,-3.87401 -2.64583,7.22273 z"
           id="path10" />
      </g>
      <g
         id="g11"
         style="display:none">
        <path
           style="display:inline;fill:#000000;fill-opacity:0;stroke:#000000;stroke-width:3.175;stroke-linejoin:round;stroke-dasharray:none;stroke-opacity:1"
           d="M 48.498105,179.85568 61.628922,142.24697 Z"
           id="path7" />
        <path
           style="display:inline;fill:#000000;fill-opacity:0;stroke:#000000;stroke-width:3.175;stroke-linejoin:round;stroke-dasharray:none;stroke-opacity:1"
           d="m 72.159564,130.26331 30.086696,-0.12913 z"
           id="path8" />
        <rect
           style="display:inline;fill:#000000;fill-opacity:0;stroke:#000000;stroke-width:3.26659;stroke-linejoin:round;stroke-dasharray:none;stroke-opacity:1"
           id="rect7"
           width="75.978355"
           height="123.75906"
           x="72.98304"
           y="66.771599"
           transform="matrix(1,0,-0.32791236,0.94470815,0,0)" />
        <path
           style="display:inline;fill:#ededed;fill-opacity:1;stroke:#000000;stroke-width:0;stroke-linejoin:round;stroke-dasharray:none;stroke-opacity:0"
           d="M 54.366763,657.96286 C 56.174381,652.71259 87.396082,562.82164 123.74832,458.20519 160.10056,353.58875 191.73315,262.425 194.04296,255.6191 l 4.19964,-12.37437 h 134.22395 c 73.82316,0 134.21612,0.4773 134.20659,1.06066 -0.0243,1.48702 -77.31926,223.82555 -78.07442,224.58072 -0.33914,0.33913 -26.84395,3.78037 -58.89959,7.64718 -32.05564,3.86681 -58.89398,7.40819 -59.64077,7.86973 -1.95122,1.20591 -1.67372,7.14956 0.40998,8.78135 0.97228,0.76141 23.40524,3.77023 49.85103,6.68627 26.4458,2.91604 49.75264,5.71208 51.793,6.2134 l 3.70972,0.91152 -27.75135,79.90307 -27.75137,79.90306 -57.6292,0.36943 c -31.69606,0.20318 -57.63564,-0.11502 -57.64352,-0.70711 -0.008,-0.59209 7.7025,-32.8 17.13414,-71.57312 15.3975,-63.29858 16.92737,-70.71768 14.98325,-72.66182 -1.35338,-1.35336 -3.40315,-1.84235 -5.46687,-1.30415 -2.75422,0.71827 -9.03476,12.94245 -37.87714,73.72247 L 159.24458,667.5088 H 105.16238 51.080187 Z M 348.50483,402.65893 c 10.80509,-5.06014 19.69008,-12.39113 24.0563,-19.84878 1.90701,-3.25723 7.95058,-18.65016 13.43018,-34.20651 11.34472,-32.20722 12.49553,-40.4566 6.80651,-48.79108 -6.83971,-10.02024 -5.92096,-9.89878 -74.87821,-9.89878 -58.26559,0 -62.27317,0.16254 -69.31853,2.8114 -10.56453,3.97199 -22.25754,13.64107 -26.9549,22.28933 -4.36888,8.04348 -23.64231,63.09733 -23.64121,67.53026 0.003,10.32031 6.8781,19.81985 16.58039,22.90812 3.85335,1.22654 21.93435,1.61735 65.42893,1.41422 l 60.10407,-0.28071 z"
           id="path19"
           transform="matrix(0.26458333,0,0,0.26458333,0.21405945,1.0226707)" />
      </g>
    </g>
  </g>
  <g
     id="g165"
     style="display:inline"
     transform="rotate(180,140.24288,90.515419)">
    <g
       id="g164"
       style="display:inline;fill:#000000;fill-opacity:0"
       transform="rotate(180,106.51447,121.02675)">
      <rect
         style="display:inline;fill:#ededed;fill-opacity:1;stroke:#000000;stroke-width:4.35546;stroke-linejoin:round;stroke-dasharray:none;stroke-opacity:1"
         id="rect154"
         width="75.978355"
         height="123.75906"
         x="72.983292"
         y="66.771935"
         transform="matrix(1,0,-0.32791236,0.94470815,0,0)" />
      <path
         id="path189"
         style="display:inline;fill:#ffffff;fill-opacity:1;stroke:#000000;stroke-width:4.35709;stroke-linejoin:round;stroke-dasharray:none;stroke-opacity:1"
         transform="matrix(1,0,-0.32994767,0.94399923,-4.7916669e-7,0)"
         d="m 97.5283,84.533974 h 27.89831 c 3.93531,0 7.10344,3.168135 7.10344,7.103442 v 14.041694 c 0,3.9353 -3.16813,7.10344 -7.10344,7.10344 H 97.5283 c -3.935307,0 -7.103442,-3.16814 -7.103442,-7.10344 V 91.637416 c 0,-3.935307 3.168135,-7.103442 7.103442,-7.103442 z" />
      <path
         id="path154"
         style="display:inline;fill:url(#pattern218);fill-opacity:1;stroke:#000000;stroke-width:4.35709;stroke-linejoin:round;stroke-dasharray:none;stroke-opacity:1"
         transform="matrix(1,0,-0.32994767,0.94399923,0,0)"
         d="m 97.5283,84.533974 h 27.89831 c 3.93531,0 7.10344,3.168135 7.10344,7.103442 v 14.041694 c 0,3.9353 -3.16813,7.10344 -7.10344,7.10344 H 97.5283 c -3.935307,0 -7.103442,-3.16814 -7.103442,-7.10344 V 91.637416 c 0,-3.935307 3.168135,-7.103442 7.103442,-7.103442 z" />
      <path
         id="path155"
         style="display:none;fill:#ededed;fill-opacity:1;stroke:#000000;stroke-width:4.35546;stroke-linejoin:round;stroke-dasharray:none;stroke-opacity:1"
         d="m 72.983256,66.771801 1.7e-4,123.759259 h 75.978304 l -1.7e-4,-123.759259 z m 24.352293,17.698492 h 27.898041 c 3.93531,0 7.09659,3.166188 7.08761,7.098542 l -0.0324,14.030795 c -0.009,3.93235 -3.18395,7.09854 -7.11926,7.09854 h -27.8986 c -3.935307,0 -7.096077,-3.16619 -7.087099,-7.09854 l 0.03192,-14.030795 c 0.009,-3.932354 3.184479,-7.098542 7.119786,-7.098542 z"
         transform="matrix(1,0,-0.32791236,0.94470815,0,0)" />
      <g
         id="g158"
         transform="translate(0.21405945,1.0226707)"
         style="display:none;stroke-width:3.175;stroke-dasharray:none">
        <path
           style="display:inline;fill:#000000;fill-opacity:0;stroke:#000000;stroke-width:12.8509;stroke-linecap:round;stroke-linejoin:round;stroke-dasharray:none;stroke-opacity:1"
           d="m 47.64222,145.06916 c -4.275652,-10.99948 -2.702685,-24.08594 4.057754,-33.7589 6.760438,-9.67296 18.509236,-15.647529 30.308154,-15.41248 11.786673,0.234805 23.277112,6.65866 29.650432,16.5764 6.37332,9.91774 7.44257,23.03845 2.75914,33.85724"
           id="path156"
           transform="matrix(0.18511285,-0.00586343,-0.09689036,0.33282022,69.349711,124.26364)" />
        <path
           style="display:inline;fill:#000000;fill-opacity:0;stroke:#000000;stroke-width:2.76687;stroke-linecap:round;stroke-linejoin:round;stroke-dasharray:none;stroke-opacity:1"
           d="m 25.626185,165.03106 c -2.372576,0.0431 4.745154,-0.0863 7.117731,-0.12934 2.372575,-0.0432 -7.117731,0.12934 -7.117731,0.12934 z"
           id="path157"
           transform="translate(-0.21405945,-1.0226707)" />
        <path
           style="fill:#000000;fill-opacity:0;stroke:#000000;stroke-width:12.8655;stroke-linecap:round;stroke-linejoin:round;stroke-dasharray:none;stroke-opacity:1"
           d="m 47.64222,145.06916 c -4.275652,-10.99948 -2.702685,-24.08594 4.057754,-33.7589 6.760438,-9.67296 18.509236,-15.647529 30.308154,-15.41248 11.786673,0.234805 23.277112,6.65866 29.650432,16.5764 6.37332,9.91774 7.44257,23.03845 2.75914,33.85724"
           id="path158"
           transform="matrix(0.0494057,-0.23528114,0.25884733,0,-4.2165201,183.09765)" />
      </g>
      <g
         id="g160"
         style="display:inline">
        <path
           style="fill:#000000;fill-opacity:1;stroke:#000000;stroke-width:2.64583;stroke-linejoin:round;stroke-dasharray:none;stroke-opacity:1"
           d="m 73.759932,122.38189 32.279168,-3.87401 -2.64583,7.22273 z"
           id="path160" />
        <path
           style="fill:#000000;fill-opacity:1;stroke:#000000;stroke-width:2.64583;stroke-linejoin:round;stroke-dasharray:none;stroke-opacity:1"
           d="m 43.205479,179.38749 18.648266,-39.15833 -9.672032,39.6875 z"
           id="path159" />
      </g>
      <g
         id="g163"
         style="display:none">
        <path
           style="display:inline;fill:#000000;fill-opacity:0;stroke:#000000;stroke-width:3.175;stroke-linejoin:round;stroke-dasharray:none;stroke-opacity:1"
           d="M 48.498105,179.85568 61.628922,142.24697 Z"
           id="path161" />
        <path
           style="display:inline;fill:#000000;fill-opacity:0;stroke:#000000;stroke-width:3.175;stroke-linejoin:round;stroke-dasharray:none;stroke-opacity:1"
           d="m 72.159564,130.26331 30.086696,-0.12913 z"
           id="path162" />
        <rect
           style="display:inline;fill:#000000;fill-opacity:0;stroke:#000000;stroke-width:3.26659;stroke-linejoin:round;stroke-dasharray:none;stroke-opacity:1"
           id="rect162"
           width="75.978355"
           height="123.75906"
           x="72.98304"
           y="66.771599"
           transform="matrix(1,0,-0.32791236,0.94470815,0,0)" />
        <path
           style="display:inline;fill:#ededed;fill-opacity:1;stroke:#000000;stroke-width:0;stroke-linejoin:round;stroke-dasharray:none;stroke-opacity:0"
           d="M 54.366763,657.96286 C 56.174381,652.71259 87.396082,562.82164 123.74832,458.20519 160.10056,353.58875 191.73315,262.425 194.04296,255.6191 l 4.19964,-12.37437 h 134.22395 c 73.82316,0 134.21612,0.4773 134.20659,1.06066 -0.0243,1.48702 -77.31926,223.82555 -78.07442,224.58072 -0.33914,0.33913 -26.84395,3.78037 -58.89959,7.64718 -32.05564,3.86681 -58.89398,7.40819 -59.64077,7.86973 -1.95122,1.20591 -1.67372,7.14956 0.40998,8.78135 0.97228,0.76141 23.40524,3.77023 49.85103,6.68627 26.4458,2.91604 49.75264,5.71208 51.793,6.2134 l 3.70972,0.91152 -27.75135,79.90307 -27.75137,79.90306 -57.6292,0.36943 c -31.69606,0.20318 -57.63564,-0.11502 -57.64352,-0.70711 -0.008,-0.59209 7.7025,-32.8 17.13414,-71.57312 15.3975,-63.29858 16.92737,-70.71768 14.98325,-72.66182 -1.35338,-1.35336 -3.40315,-1.84235 -5.46687,-1.30415 -2.75422,0.71827 -9.03476,12.94245 -37.87714,73.72247 L 159.24458,667.5088 H 105.16238 51.080187 Z M 348.50483,402.65893 c 10.80509,-5.06014 19.69008,-12.39113 24.0563,-19.84878 1.90701,-3.25723 7.95058,-18.65016 13.43018,-34.20651 11.34472,-32.20722 12.49553,-40.4566 6.80651,-48.79108 -6.83971,-10.02024 -5.92096,-9.89878 -74.87821,-9.89878 -58.26559,0 -62.27317,0.16254 -69.31853,2.8114 -10.56453,3.97199 -22.25754,13.64107 -26.9549,22.28933 -4.36888,8.04348 -23.64231,63.09733 -23.64121,67.53026 0.003,10.32031 6.8781,19.81985 16.58039,22.90812 3.85335,1.22654 21.93435,1.61735 65.42893,1.41422 l 60.10407,-0.28071 z"
           id="path163"
           transform="matrix(0.26458333,0,0,0.26458333,0.21405945,1.0226707)" />
      </g>
    </g>
  </g>
</svg>
