<?xml version="1.0" encoding="UTF-8" standalone="no"?>
<!-- Created with Inkscape (http://www.inkscape.org/) -->

<svg
   width="883.81335"
   height="539.44855"
   viewBox="0 0 883.81335 539.44855"
   version="1.1"
   id="svg1"
   sodipodi:docname="WaveQuill.svg"
   inkscape:version="1.4 (86a8ad7, 2024-10-11)"
   xmlns:inkscape="http://www.inkscape.org/namespaces/inkscape"
   xmlns:sodipodi="http://sodipodi.sourceforge.net/DTD/sodipodi-0.dtd"
   xmlns="http://www.w3.org/2000/svg"
   xmlns:svg="http://www.w3.org/2000/svg">
  <sodipodi:namedview
     id="namedview1"
     pagecolor="#ffffff"
     bordercolor="#000000"
     borderopacity="0.25"
     inkscape:showpageshadow="2"
     inkscape:pageopacity="0.0"
     inkscape:pagecheckerboard="0"
     inkscape:deskcolor="#d1d1d1"
     inkscape:zoom="1.5108021"
     inkscape:cx="341.87138"
     inkscape:cy="269.72427"
     inkscape:window-width="1920"
     inkscape:window-height="1017"
     inkscape:window-x="1912"
     inkscape:window-y="-8"
     inkscape:window-maximized="1"
     inkscape:current-layer="layer1" />
  <defs
     id="defs1" />
  <g
     id="layer1"
     transform="translate(-162.04128,-492.9505)">
    <g
       id="g21"
       transform="translate(-114.63891,215.23667)"
       style="fill:#e08970;fill-opacity:1;stroke:#e08970;stroke-opacity:1">
      <path
         id="path3"
         style="fill:#e08970;stroke:#e08970;stroke-width:0.77895;fill-opacity:1;stroke-opacity:1"
         d="m 537.10352,505.10742 c -14.64966,0.1687 -31.65741,4.50797 -46.76368,12.24219 -13.87101,7.10181 -30.09703,19.71442 -38.72656,30.10351 -18.33741,22.07642 -23.26364,55.93462 -12.84375,88.28321 7.09209,22.01743 18.95779,38.20973 39.39063,53.75976 25.16621,19.15227 49.29016,31.00292 71.49414,35.1211 7.61589,1.41268 16.13488,1.4439 22.4375,0.082 10.57572,-2.28519 33.04616,-13.95394 68.83984,-35.74805 11.8623,-7.22273 31.96813,-19.24676 44.67774,-26.71875 12.7096,-7.47198 29.20788,-17.92148 36.41,-22.46245 24.79651,-15.63434 48.96791,-29.67226 69.88687,-41.52583 5.93112,-3.36086 22.22259,-13.08897 36.20313,-21.61914 10.82409,-6.60425 24.00607,-14.41643 33.17215,-19.67513 0.88975,-12.49525 -25.37177,18.76626 -24.95526,6.16713 -68.30686,20.304 -56.20066,14.1159 -158.58791,60.03583 -21.50912,9.64668 -40.49133,23.45745 -53.95519,31.88428 -60.97394,38.16277 -81.43727,39.58033 -120.75,8.36133 -16.37683,-13.00515 -25.77286,-31.29031 -27.06445,-52.66406 -1.89526,-31.364 15.61063,-60.04613 40.26563,-65.97266 12.51653,-3.00869 31.20751,1.50029 40.51171,9.77344 3.74493,3.32995 5.50266,3.63875 9.48829,1.67187 6.70907,-3.31092 12.48791,-12.55537 13.25781,-21.21094 0.35841,-4.02946 0.12323,-5.22319 -1.78711,-9.07226 -4.66687,-9.40313 -15.19387,-17.06209 -26.89453,-19.56641 -4.20105,-0.89916 -8.82381,-1.30623 -13.70703,-1.25 z" />
      <path
         style="display:inline;fill:#e08970;stroke:#e08970;stroke-width:0.83664;fill-opacity:1;stroke-opacity:1"
         d="m 557.88829,640.24133 c -17.21004,-2.15044 -34.23806,-11.4777 -39.72648,-21.76052 -5.14426,-9.638 -3.67121,-16.91068 5.04366,-24.90158 6.4074,-5.87511 12.09306,-8.57033 16.72062,-7.9262 1.7322,0.24109 7.29254,2.21781 12.35634,4.39265 11.90393,5.11264 18.78183,6.16608 28.80805,4.41232 36.04361,-6.30467 61.38557,-47.3072 48.71939,-78.82656 -3.22307,-8.02052 -7.47125,-13.59781 -16.78724,-22.03942 -13.65803,-12.37612 -31.14713,-21.76701 -48.85299,-26.23194 -11.75464,-2.96415 -28.41229,-3.46182 -39.53909,-1.18122 -16.55806,3.39378 -51.10853,16.82009 -77.30197,30.03954 -6.67497,3.36876 -19.23907,9.37807 -27.92025,13.35405 -8.68117,3.97596 -20.65441,9.55825 -26.60723,12.40508 -5.9528,2.84681 -21.37596,10.153 -34.27369,16.23594 -12.89774,6.08294 -29.47611,14.35169 -36.84081,18.37498 -25.40713,13.87973 -44.01412,22.74727 -44.23718,13.61044 -0.54729,-22.41723 -3.98602,-33.29678 30.74566,-51.2557 2.91406,-1.50679 29.24571,-9.72437 64.76336,-28.70731 43.46215,-23.22899 101.37639,-50.20369 125.30319,-58.36243 11.51229,-3.92555 22.61313,-5.93929 35.24205,-6.39306 38.83668,-1.39546 77.9504,13.62846 116.1732,43.47928 14.85947,11.6048 17.45355,17.68169 19.98095,30.25798 1.56822,7.80331 2.68815,37.21657 1.49683,47.88867 -4.033,36.12795 -18.115,59.09752 -45.98912,75.01422 -15.21154,8.68607 -37.1916,16.50281 -51.05553,18.15678 -7.71058,0.91988 -8.58749,0.91794 -16.22173,-0.036 z"
         id="path2-4" />
    </g>
    <g
       id="g19"
       transform="rotate(0.52560515,-59458.931,20278.861)"
       style="opacity:1;fill:#e08970;stroke:#e08970;fill-opacity:1;stroke-opacity:1">
      <g
         id="g14"
         transform="rotate(-23.70065,850.12484,465.48415)"
         style="display:none;fill:#e08970;stroke:#e08970;fill-opacity:1;stroke-opacity:1">
        <path
           style="display:inline;fill:#e08970;stroke:#e08970;stroke-width:0;fill-opacity:1;stroke-opacity:1"
           d="m 659.78448,105.44974 c 1.07056,-0.84088 10.35203,-6.689604 20.62544,-12.997134 10.27345,-6.30753 24.51064,-15.46097 31.63822,-20.34093 7.12758,-4.88 13.78605,-9.22054 14.79657,-9.6457 2.98297,-1.25499 5.32597,-1.42349 19.52773,-1.4045 7.42769,0.01 15.96794,-0.22427 18.97826,-0.52047 5.1636,-0.5081 5.40802,-0.44207 4.31878,1.16631 -0.63502,0.93769 -7.94051,9.27784 -16.23442,18.53367 -11.72898,13.08932 -15.18421,17.21084 -15.54955,18.54816 -0.67533,2.472124 2.82723,6.745804 5.07418,6.191094 2.29703,-0.56698 6.66772,-3.31701 10.65279,-6.702614 3.88559,-3.30111 19.60174,-18.44119 28.54589,-27.49954 6.83087,-6.91808 12.99534,-12.3224 13.431,-11.77474 0.15603,0.19627 4.66724,0.8253 10.02475,1.3979 8.57641,0.91664 9.67958,1.23179 9.22709,2.63575 -0.37386,1.15985 -3.84384,5.12076 -12.72808,14.52748 l -12.21411,12.93296 -0.42859,2.54886 c -1.01435,6.0322 1.90113,4.17123 18.91063,-12.07081 6.85249,-6.54332 13.62946,-12.79297 15.05994,-13.88818 3.95571,-3.02856 7.99432,-3.69898 17.51901,-2.90828 4.78124,0.39695 16.37041,1.1493 25.75367,1.67193 33.07005,1.842 36.71994,2.85606 71.23284,19.78994 8.02952,3.93972 17.35523,8.47215 20.7238,10.07222 7.37532,3.50322 38.43186,20.020724 47.43908,25.230694 3.5463,2.05126 6.3836,4.05318 6.3054,4.44909 -0.2168,1.09709 -10.0457,5.97565 -33.03493,16.39674 -23.60125,10.69849 -41.29768,19.19488 -52.75527,25.32877 -9.00367,4.82039 -14.39407,7.06269 -15.7757,6.56239 -0.53329,-0.19324 -2.61492,-3.33906 -4.626,-6.99108 -4.46748,-8.11293 -12.78087,-21.01634 -16.77818,-26.04169 -4.82617,-6.06742 -8.91199,-6.16074 -9.86352,-0.22509 -0.93222,5.81546 1.20283,13.48553 7.06257,25.37157 2.39843,4.86511 4.54696,9.75596 4.77438,10.86842 l 0.41353,2.02272 -2.40295,0.54409 c -1.32167,0.29918 -8.02493,0.35929 -14.89608,0.13366 -6.87125,-0.22572 -15.57738,-0.31023 -19.34696,-0.18784 -30.30831,0.98428 -47.71461,1.2009 -48.73409,0.60633 -0.66268,-0.38659 -2.59285,-3.4257 -4.28907,-6.75351 -1.69608,-3.32778 -6.20558,-11.29224 -10.02096,-17.69864 -11.50073,-19.31096 -14.71795,-25.17188 -14.84219,-27.0385 -0.11529,-1.73239 -0.0681,-1.7924 1.76383,-2.24462 1.03526,-0.25553 9.27181,-0.3119 18.30347,-0.12527 9.03163,0.18666 23.55951,0.11492 32.28415,-0.15946 23.33021,-0.73353 31.63945,-0.78534 45.793,-0.28561 7.00466,0.24737 19.48837,0.49075 27.74162,0.54085 8.2533,0.0502 26.33048,0.47363 40.17154,0.94095 13.84098,0.46721 28.61453,0.80185 32.83,0.74357 12.44159,-0.17213 22.77021,-2.57119 18.93527,-4.39822 -3.5195,-1.6768 -24.65357,-4.68369 -77.4176,-11.01483 -38.91301,-4.66913 -46.98459,-5.17321 -76.89177,-4.80186 -23.75527,0.29502 -27.88566,0.29396 -42.21219,-0.0105 -5.8029,-0.12335 -13.7095,0.0617 -17.57021,0.41115 -6.40688,0.57996 -41.14485,1.87325 -75.62829,2.81564 -11.49207,0.3141 -36.8675,-1.50934 -45.29679,-3.25494 l -2.26738,-0.46953 z"
           id="path2-1" />
        <path
           style="display:inline;fill:#e08970;stroke:#e08970;stroke-width:0;fill-opacity:1;stroke-opacity:1"
           d="m 736.90748,187.33035 c 0.34329,-4.2415 -6.85379,-16.1687 -20.94126,-34.70436 -14.87461,-19.57136 -15.36957,-21.33548 -6.37276,-22.71392 6.13772,-0.94037 41.25006,-1.2326 45.2106,-0.37624 3.12028,0.67466 3.2174,0.77264 4.59057,4.62985 1.92554,5.40884 8.0307,17.40182 16.23062,31.88357 9.48779,16.75613 11.26537,20.90768 9.693,22.63735 -0.89292,0.9822 -4.3475,1.31217 -11.34105,1.08322 -3.61663,-0.11838 -11.36967,-0.0682 -17.22894,0.1114 -14.11081,0.43269 -19.1334,0.36197 -19.59802,-0.27591 -0.21044,-0.29108 -0.32055,-1.31385 -0.24276,-2.27496 z"
           id="path3-3" />
        <path
           style="display:inline;fill:#e08970;stroke:#e08970;stroke-width:0;fill-opacity:1;stroke-opacity:1"
           d="m 648.22523,137.93917 c 1.78961,-1.9686 20.88789,-4.39442 31.37241,-3.98481 l 5.64203,0.22036 4.14797,5.21479 c 5.89029,7.40525 19.82312,27.50785 26.01699,37.53792 5.65735,9.16129 6.07403,11.00232 3.20455,14.15883 -1.7012,1.87133 -5.50567,2.7256 -8.26919,1.85689 -1.10473,-0.34733 -3.60651,-2.22506 -5.55942,-4.17284 -10.82467,-10.79536 -20.05964,-18.77287 -39.33665,-33.98057 -13.10766,-10.34057 -18.41504,-15.53459 -17.21863,-16.85066 z"
           id="path4" />
        <path
           style="display:inline;fill:#e08970;stroke:#e08970;stroke-width:0;fill-opacity:1;stroke-opacity:1"
           d="m 531.07098,138.32406 c -0.40195,-2.88157 0.69762,-6.35671 2.71284,-8.57348 2.11125,-2.32239 11.84693,-3.84091 36.69034,-5.72272 49.6426,-3.76026 58.64177,-4.05074 75.89505,-2.44956 9.29104,0.86228 22.77974,3.48302 25.61682,4.97714 1.10391,0.58127 1.07548,0.75557 -0.231,1.41913 -0.81915,0.41607 -4.87196,1.19984 -9.0062,1.74177 -4.13428,0.54196 -15.3716,2.12004 -24.97189,3.5069 -52.48374,7.58182 -94.85776,12.57444 -98.94439,11.65781 -4.38819,-0.98423 -7.33095,-3.47024 -7.76157,-6.55699 z"
           id="path5" />
      </g>
      <path
         style="display:inline;fill:#e08970;stroke:#e08970;stroke-width:0.956609;fill-opacity:1;stroke-opacity:1"
         d="M 587.50474,206.93124 421.99242,307.74639 392.3162,284.06714 536.14576,219.32351 Z"
         id="path2-8" />
      <path
         style="display:inline;fill:#e08970;stroke:#e08970;stroke-width:1.00157;fill-opacity:1;stroke-opacity:1"
         d="m 533.39311,247.44082 31.99987,-19.34875 57.67418,36.09287 -14.13948,7.25578 z"
         id="path6" />
      <path
         style="display:inline;fill:#e08970;stroke:#e08970;stroke-width:1.00157;fill-opacity:1;stroke-opacity:1"
         d="m 581.765,219.16187 49.11608,-23.9999 48.18584,42.97657 -43.72075,19.16271 z"
         id="path18" />
      <path
         style="display:inline;fill:#e08970;stroke:#e08970;stroke-width:1.00157;fill-opacity:1;stroke-opacity:1"
         d="m 647.81124,185.1155 46.51143,36.27892 78.32525,-35.16264 -22.93156,-32.86732 2.80969,-1.95097 35.93576,22.72531 73.67411,-85.394986 -118.32508,-7.069738 -76.09271,25.860354 -18.97666,43.72075 -4.83719,-1.30232 12.27902,-39.81379 -19.9069,5.76742 -27.72081,62.32532 -10.41856,-1.86046 15.99993,-49.48816 -39.44169,18.60457 -44.46493,69.02297 216.92932,-92.83682 98.41819,-28.092907 0.93023,1.674412 -94.69728,43.348655 z"
         id="path19" />
    </g>
    <g
       id="g20"
       style="display:inline;fill:#ededed;fill-opacity:1;stroke:#ededed;stroke-opacity:1"
       transform="translate(-27.86562,215.42889)">
      <path
         style="display:inline;fill:#ededed;stroke:#ededed;stroke-width:0.956609;fill-opacity:1;stroke-opacity:1"
         d="M 208.807,708.22455 208.7729,596.3298 244.09607,578.10481 V 723.7954 Z"
         id="path2-5" />
      <path
         style="display:inline;fill:#ededed;stroke:#ededed;stroke-width:0.956609;fill-opacity:1;stroke-opacity:1"
         d="m 208.80572,499.15268 -0.0341,-110.76486 35.32317,-15.7076 v 110.63334 z"
         id="path2-5-6-6" />
      <path
         style="display:inline;fill:#ededed;stroke:#ededed;stroke-width:0.956609;fill-opacity:1;stroke-opacity:1"
         d="m 271.39544,471.0508 0.45695,-111.68385 34.83213,-15.10323 v 109.07742 z"
         id="path2"
         transform="translate(-0.03348,-0.19222)" />
      <path
         style="display:inline;fill:#ededed;stroke:#ededed;stroke-width:0.956609;fill-opacity:1;stroke-opacity:1"
         d="m 271.50882,737.55388 -0.0341,-172.55525 35.32317,-17.08421 v 205.99702 z"
         id="path2-5-6" />
    </g>
    <g
       id="g10"
       style="display:inline;fill:#ededed;fill-opacity:1;stroke:#ededed;stroke-opacity:1"
       transform="translate(-111.80488,243.99836)">
      <path
         style="display:inline;fill:#ededed;stroke:#ededed;stroke-width:1.09246;fill-opacity:1;stroke-opacity:1"
         d="m 698.90954,725.02439 0.45421,-76.01118 34.62364,-21.05908 v 81.10672 z"
         id="path2-6-6" />
      <path
         style="display:inline;fill:#ededed;stroke:#ededed;stroke-width:1.09246;fill-opacity:1;stroke-opacity:1"
         d="m 761.36378,695.50766 0.45421,-86.40591 34.62364,-24.70852 v 95.15089 z"
         id="path2-6-6-2" />
      <path
         style="display:inline;fill:#ededed;stroke:#ededed;stroke-width:1.09246;fill-opacity:1;stroke-opacity:1"
         d="m 698.90802,557.15263 0.45421,-241.64604 34.62364,15.79148 v 210.01602 z"
         id="path2-6" />
      <path
         style="display:inline;fill:#ededed;stroke:#ededed;stroke-width:0.976115;fill-opacity:1;stroke-opacity:1"
         d="m 761.49403,533.19076 0.45612,-188.89756 34.76938,15.54491 v 163.5758 z"
         id="path2-6-3" />
    </g>
    <g
       id="g11"
       style="display:inline;fill:#ededed;fill-opacity:1;stroke:#ededed;stroke-opacity:1">
      <path
         style="display:inline;opacity:1;fill:#ededed;fill-opacity:1;stroke:#ededed;stroke-width:1.00157;stroke-opacity:1"
         d="m 306.2857,978.21597 129.45102,53.63873 124.15786,-54.4682 0.002,-40.0766 -124.14237,54.65954 -129.45957,-53.66077 z"
         id="path7" />
      <path
         style="display:inline;fill:#ededed;fill-opacity:1;stroke:#ededed;stroke-width:1.00157;stroke-opacity:1"
         d="m 559.91824,547.13361 -125.451,-53.63873 -128.1578,54.4682 v 40.07662 l 128.1423,-54.65956 125.4596,53.66076 z"
         id="path7-7" />
      <path
         style="display:inline;fill:#ededed;fill-opacity:1;stroke:#ededed;stroke-width:1.00157;stroke-opacity:1"
         d="m 559.90364,615.00128 -125.451,-53.63873 -128.1578,54.4682 v 40.07662 l 128.1423,-54.65956 125.4596,53.66076 z"
         id="path7-7-9" />
    </g>
  </g>
</svg>
